<svg width="23" height="15" viewBox="0 0 23 15" fill="none" xmlns="http://www.w3.org/2000/svg">
<path d="M8.7132 1.6748C8.7132 1.8868 8.8828 2.0352 9.0736 2.0352H10.2396C10.4304 2.0352 10.6 2.2048 10.6 2.3956V14.5008C10.6 14.6916 10.4304 14.8612 10.2396 14.8612H7.1868C6.996 14.8612 6.8476 14.6916 6.8476 14.5008V10.3244C6.8476 10.1124 6.678 9.964 6.4872 9.964H4.1128C3.9008 9.964 3.7524 10.1124 3.7524 10.3244V14.5008C3.7524 14.6916 3.5828 14.8612 3.392 14.8612H0.339204C0.148404 14.8612 4.00748e-06 14.6916 4.00748e-06 14.5008V2.3956C4.00748e-06 2.2048 0.148404 2.0352 0.339204 2.0352H1.7596C1.9504 2.0352 2.12 1.8868 2.12 1.6748V0.360403C2.12 0.169603 2.2684 2.42233e-06 2.4592 2.42233e-06H8.3528C8.5648 2.42233e-06 8.7132 0.169603 8.7132 0.360403V1.6748ZM3.7524 7.5684C3.7524 7.7804 3.9008 7.9288 4.1128 7.9288H6.4872C6.678 7.9288 6.8476 7.7804 6.8476 7.5684V3.286C6.8476 3.0952 6.678 2.9256 6.4872 2.9256H4.1128C3.9008 2.9256 3.7524 3.0952 3.7524 3.286V7.5684ZM11.8609 12.826C11.6701 12.826 11.5217 12.6564 11.5217 12.4656V0.360403C11.5217 0.169603 11.6701 2.42233e-06 11.8609 2.42233e-06H14.9137C15.1045 2.42233e-06 15.2741 0.169603 15.2741 0.360403V11.5752C15.2741 11.766 15.4225 11.9356 15.6345 11.9356H18.0089C18.1997 11.9356 18.3693 11.766 18.3693 11.5752V0.360403C18.3693 0.169603 18.5177 2.42233e-06 18.7085 2.42233e-06H21.7613C21.9521 2.42233e-06 22.1217 0.169603 22.1217 0.360403V12.4656C22.1217 12.6564 21.9521 12.826 21.7613 12.826H20.3621C20.1501 12.826 20.0017 12.9744 20.0017 13.1864V14.5008C20.0017 14.6916 19.8321 14.84 19.6413 14.84H13.7477C13.5569 14.84 13.3873 14.6916 13.3873 14.5008V13.1864C13.3873 12.9744 13.2389 12.826 13.0269 12.826H11.8609Z" fill="white"/>
</svg>
