<svg width="72" height="15" viewBox="0 0 72 15" fill="none" xmlns="http://www.w3.org/2000/svg">
<path d="M8.7132 1.6748C8.7132 1.8868 8.8828 2.0352 9.0736 2.0352H10.2396C10.4304 2.0352 10.6 2.2048 10.6 2.3956V14.5008C10.6 14.6916 10.4304 14.8612 10.2396 14.8612H7.1868C6.996 14.8612 6.8476 14.6916 6.8476 14.5008V10.3244C6.8476 10.1124 6.678 9.964 6.4872 9.964H4.1128C3.9008 9.964 3.7524 10.1124 3.7524 10.3244V14.5008C3.7524 14.6916 3.5828 14.8612 3.392 14.8612H0.339204C0.148404 14.8612 4.00748e-06 14.6916 4.00748e-06 14.5008V2.3956C4.00748e-06 2.2048 0.148404 2.0352 0.339204 2.0352H1.7596C1.9504 2.0352 2.12 1.8868 2.12 1.6748V0.360403C2.12 0.169603 2.2684 2.42233e-06 2.4592 2.42233e-06H8.3528C8.5648 2.42233e-06 8.7132 0.169603 8.7132 0.360403V1.6748ZM3.7524 7.5684C3.7524 7.7804 3.9008 7.9288 4.1128 7.9288H6.4872C6.678 7.9288 6.8476 7.7804 6.8476 7.5684V3.286C6.8476 3.0952 6.678 2.9256 6.4872 2.9256H4.1128C3.9008 2.9256 3.7524 3.0952 3.7524 3.286V7.5684ZM11.8609 12.826C11.6701 12.826 11.5217 12.6564 11.5217 12.4656V0.360403C11.5217 0.169603 11.6701 2.42233e-06 11.8609 2.42233e-06H14.9137C15.1045 2.42233e-06 15.2741 0.169603 15.2741 0.360403V11.5752C15.2741 11.766 15.4225 11.9356 15.6345 11.9356H18.0089C18.1997 11.9356 18.3693 11.766 18.3693 11.5752V0.360403C18.3693 0.169603 18.5177 2.42233e-06 18.7085 2.42233e-06H21.7613C21.9521 2.42233e-06 22.1217 0.169603 22.1217 0.360403V12.4656C22.1217 12.6564 21.9521 12.826 21.7613 12.826H20.3621C20.1501 12.826 20.0017 12.9744 20.0017 13.1864V14.5008C20.0017 14.6916 19.8321 14.84 19.6413 14.84H13.7477C13.5569 14.84 13.3873 14.6916 13.3873 14.5008V13.1864C13.3873 12.9744 13.2389 12.826 13.0269 12.826H11.8609ZM33.3678 1.908C33.5586 1.908 33.7282 2.0776 33.7282 2.2684V12.7836C33.7282 12.9744 33.5586 13.144 33.3678 13.144H32.0746C31.8838 13.144 31.7354 13.2924 31.7354 13.5044V14.5008C31.7354 14.6916 31.5658 14.84 31.375 14.84H23.4674C23.2766 14.84 23.1282 14.6916 23.1282 14.5008V0.360403C23.1282 0.169603 23.2766 2.42233e-06 23.4674 2.42233e-06H31.375C31.5658 2.42233e-06 31.7354 0.169603 31.7354 0.360403V1.5476C31.7354 1.7596 31.8838 1.908 32.0746 1.908H33.3678ZM27.241 2.9256C27.029 2.9256 26.8806 3.0952 26.8806 3.286V11.5752C26.8806 11.766 27.029 11.9356 27.241 11.9356H29.6154C29.8062 11.9356 29.9758 11.766 29.9758 11.5752V3.286C29.9758 3.0952 29.8062 2.9256 29.6154 2.9256H27.241ZM41.9634 2.5652C41.9634 2.7772 41.7938 2.9256 41.603 2.9256H40.2886C40.0978 2.9256 39.9282 3.0952 39.9282 3.286V11.5752C39.9282 11.766 40.0978 11.9356 40.2886 11.9356H41.603C41.7938 11.9356 41.9634 12.084 41.9634 12.296V14.5008C41.9634 14.6916 41.7938 14.8612 41.603 14.8612H34.501C34.3102 14.8612 34.1618 14.6916 34.1618 14.5008V12.296C34.1618 12.084 34.3102 11.9356 34.501 11.9356H35.8154C36.0062 11.9356 36.1758 11.766 36.1758 11.5752V3.286C36.1758 3.0952 36.0062 2.9256 35.8154 2.9256H34.501C34.3102 2.9256 34.1618 2.7772 34.1618 2.5652V0.360403C34.1618 0.169603 34.3102 2.42233e-06 34.501 2.42233e-06H41.603C41.7938 2.42233e-06 41.9634 0.169603 41.9634 0.360403V2.5652ZM41.9979 2.9256C41.8071 2.9256 41.6587 2.7772 41.6587 2.5652V0.360403C41.6587 0.169603 41.8071 2.42233e-06 41.9979 2.42233e-06H52.6191C52.8099 2.42233e-06 52.9795 0.169603 52.9795 0.360403V2.5652C52.9795 2.7772 52.8099 2.9256 52.6191 2.9256H49.5451C49.3543 2.9256 49.1847 3.0952 49.1847 3.286V14.4584C49.1847 14.6704 49.0363 14.8188 48.8243 14.8188H45.7927C45.5807 14.8188 45.4323 14.6704 45.4323 14.4584V3.286C45.4323 3.0952 45.2627 2.9256 45.0719 2.9256H41.9979ZM62.5499 12.3384V14.5432C62.5499 14.734 62.4015 14.8824 62.1895 14.8824H55.4903C55.2783 14.8824 55.1299 14.734 55.1299 14.5432V13.5468C55.1299 13.3348 54.9603 13.1864 54.7695 13.1864H53.4763C53.2855 13.1864 53.1371 13.0168 53.1371 12.826V0.360403C53.1371 0.169603 53.2855 2.42233e-06 53.4763 2.42233e-06H56.5079C56.7199 2.42233e-06 56.8683 0.169603 56.8683 0.360403L56.8895 11.6176C56.8895 11.8084 57.0379 11.978 57.2499 11.978H62.1895C62.4015 11.978 62.5499 12.1264 62.5499 12.3384ZM70.8499 2.42233e-06C71.0407 2.42233e-06 71.2103 0.169603 71.2103 0.360403V6.5084C71.2103 6.6992 71.0407 6.8688 70.8499 6.8688H69.6839C69.4931 6.8688 69.3235 7.0172 69.3235 7.2292V8.4588C69.3235 8.6708 69.1751 8.8192 68.9631 8.8192H68.1363C67.9455 8.8192 67.7759 8.9888 67.7759 9.1796V14.5008C67.7759 14.6916 67.6275 14.8612 67.4367 14.8612H64.3839C64.1931 14.8612 64.0235 14.6916 64.0235 14.5008V9.1796C64.0235 8.9888 63.8751 8.8192 63.6631 8.8192H62.8363C62.6455 8.8192 62.4759 8.6708 62.4759 8.4588V7.2292C62.4759 7.0172 62.3275 6.8688 62.1155 6.8688H60.9495C60.7587 6.8688 60.6103 6.6992 60.6103 6.5084V0.360403C60.6103 0.169603 60.7587 2.42233e-06 60.9495 2.42233e-06H64.0023C64.1931 2.42233e-06 64.3627 0.169603 64.3627 0.360403V5.6816C64.3627 5.8724 64.5111 6.042 64.7231 6.042H67.0975C67.2883 6.042 67.4579 5.8724 67.4579 5.6816V0.360403C67.4579 0.169603 67.6063 2.42233e-06 67.7971 2.42233e-06H70.8499Z" fill="currentColor"/>
</svg>
